<svg xmlns="http://www.w3.org/2000/svg" width="682.667" height="682.667" preserveAspectRatio="xMidYMid meet" version="1.0" viewBox="0 0 512 512"><metadata>Created by potrace 1.11, written by Peter Selinger 2001-2013</metadata><g fill="#000" stroke="none"><path d="M885 4150 c-45 -14 -115 -78 -136 -124 -38 -84 -20 -175 49 -246 55 -56 109 -76 186 -65 63 8 94 24 139 74 95 105 67 268 -57 341 -43 25 -133 35 -181 20z" transform="translate(0.000000,512.000000) scale(0.100000,-0.100000)"/><path d="M755 3346 c1 -223 11 -203 -107 -201 -46 0 -79 -3 -81 -10 -3 -9 -1 -299 2 -317 0 -4 37 -6 82 -5 44 1 85 -1 92 -5 9 -5 12 -119 13 -440 0 -378 3 -441 18 -493 50 -176 152 -272 328 -309 36 -8 138 -14 239 -15 l176 -2 0 168 -1 168 -130 5 c-148 6 -182 17 -208 68 -14 30 -16 79 -15 444 l2 411 175 1 175 1 1 163 c1 115 -1 162 -10 163 -6 1 -78 3 -161 4 -82 1 -158 3 -167 4 -16 1 -18 17 -17 184 0 100 0 188 0 195 -1 9 -49 12 -204 12 l-202 0 0 -194z" transform="translate(0.000000,512.000000) scale(0.100000,-0.100000)"/><path d="M2540 3154 c-94 -21 -196 -73 -267 -139 l-63 -57 0 94 0 93 -200 0 -200 0 -1 -50 c0 -58 0 -1427 0 -1497 l1 -48 200 0 200 0 0 470 c0 259 0 472 1 475 32 183 110 274 267 311 74 17 179 10 244 -17 102 -44 168 -129 192 -248 8 -37 12 -212 11 -523 l0 -468 202 0 203 0 0 478 c0 491 3 539 42 612 63 120 183 182 335 174 175 -8 296 -113 323 -280 6 -32 10 -267 10 -521 l0 -463 199 0 c181 0 199 2 203 18 6 30 1 975 -6 1033 -9 77 -13 94 -32 153 -41 124 -82 181 -217 298 -29 26 -139 76 -205 94 -86 24 -262 26 -345 4 -158 -42 -271 -114 -357 -230 l-38 -51 -38 52 c-21 28 -56 69 -78 91 -46 43 -194 119 -271 138 -73 18 -239 20 -315 4z" transform="translate(0.000000,512.000000) scale(0.100000,-0.100000)"/></g></svg>